<svg width="600" height="600" xmlns="http://www.w3.org/2000/svg" preserveAspectRatio="xMidYMid" version="1.1">

 <g>
  <title>Layer 1</title>
  <g stroke="null" id="svg_1">
   <path stroke="null" id="svg_2" fill="#444444" d="m43.42337,336.61105l0,-53.52302l73.08884,0l0,-3.13l-73.08884,0l0,-48.82802l77.71038,0l0,-3.13l-81.13374,0l0,111.74105l81.81842,0l0,-3.13l-78.39505,0l0,0zm144.29483,-77.31103l-30.29678,36.46451l-29.6121,-36.46451l-4.45038,0l32.00847,38.81201l-35.08949,41.62902l4.10804,0l33.03547,-39.28152l33.20664,39.28152l4.27921,0l-35.26066,-41.62902l32.17963,-38.81201l-4.10804,0l0,0zm17.45916,107.98504l0,-50.08002l0.34233,0c2.05403,7.30337 6.10497,13.17207 12.15294,17.60625c6.04797,4.43419 13.75047,6.65125 23.10771,6.65125c6.04797,0 11.41119,-1.12157 16.08982,-3.36475c4.67863,-2.24318 8.58692,-5.2949 11.72502,-9.15525c3.1381,-3.86036 5.53443,-8.34665 7.18906,-13.45901c1.65464,-5.11236 2.48194,-10.48547 2.48194,-16.11951c0,-6.05137 -0.85583,-11.63315 -2.56752,-16.74551c-1.7117,-5.11236 -4.19361,-9.54649 -7.44582,-13.30251c-3.25222,-3.75602 -7.18904,-6.67732 -11.81061,-8.764c-4.62157,-2.08668 -9.84215,-3.13 -15.6619,-3.13c-4.45039,0 -8.58692,0.59991 -12.4097,1.79975c-3.82278,1.19984 -7.21758,2.89524 -10.18451,5.08625c-2.96693,2.19102 -5.53442,4.77324 -7.70257,7.74676c-2.16814,2.97351 -3.82275,6.2339 -4.96388,9.78126l-0.34233,0l0,-22.53601l-3.42337,0l0,107.98504l3.42337,0l0,0zm35.60299,-28.79601c-10.7266,0 -19.34198,-3.36473 -25.84641,-10.09426c-6.50442,-6.72954 -9.75658,-16.40635 -9.75658,-29.03076c0,-5.2167 0.79877,-10.17248 2.39635,-14.86751c1.59758,-4.69503 3.90832,-8.81616 6.93231,-12.3635c3.02399,-3.54736 6.76112,-6.36433 11.21153,-8.45101c4.45039,-2.08668 9.47128,-3.12999 15.0628,-3.12999c5.70564,0 10.698,1.04332 14.97722,3.12999c4.27923,2.08668 7.81667,4.92974 10.61243,8.52926c2.79576,3.59952 4.90682,7.72065 6.33322,12.3635c1.42641,4.64286 2.13961,9.57256 2.13961,14.78926c0,4.69503 -0.65614,9.3639 -1.96844,14.00675c-1.3123,4.64286 -3.33777,8.81616 -6.07647,12.52001c-2.7387,3.70385 -6.24762,6.72949 -10.52684,9.077c-4.27924,2.3475 -9.44276,3.52125 -15.49073,3.52125l0,0l0,0zm56.31435,1.252l0,-45.54152c0,-4.38202 0.68466,-8.65965 2.05402,-12.83301c1.36936,-4.17336 3.4804,-7.85107 6.33322,-11.03326c2.85282,-3.18218 6.47584,-5.68616 10.86918,-7.512c4.39334,-1.82585 9.61392,-2.58226 15.6619,-2.26925l0,-3.13c-5.24919,-0.10434 -9.84216,0.41732 -13.77904,1.565c-3.93689,1.14767 -7.3317,2.71266 -10.18451,4.695c-2.85282,1.98235 -5.13504,4.30374 -6.84673,6.96426c-1.71169,2.66051 -2.96692,5.50357 -3.7657,8.52925l-0.34234,0l0,-19.8755l-3.42337,0l0,80.44104l3.42337,0l0,0zm39.19753,-39.59452l73.60234,0c0.22822,-5.52969 -0.37085,-10.85065 -1.79727,-15.96301c-1.42641,-5.11236 -3.70863,-9.65082 -6.84672,-13.6155c-3.1381,-3.96469 -7.18904,-7.14682 -12.15295,-9.54651c-4.9639,-2.39967 -10.86914,-3.5995 -17.71591,-3.5995c-4.90685,0 -9.69951,0.93899 -14.37814,2.817c-4.67862,1.87801 -8.78661,4.61674 -12.32411,8.21625c-3.53749,3.59952 -6.39027,8.00757 -8.55841,13.22426c-2.16815,5.2167 -3.2522,11.16364 -3.2522,17.84101c0,5.94704 0.74172,11.50273 2.22519,16.66725c1.48346,5.16453 3.76569,9.65083 6.84673,13.45901c3.08104,3.80819 7.0464,6.75558 11.89619,8.84226c4.84979,2.08668 10.69799,3.07783 17.54475,2.9735c10.04192,0 18.48614,-2.58223 25.3329,-7.74675c6.84676,-5.16453 10.8977,-12.44171 12.15294,-21.83177l-3.42337,0c-1.48346,8.86838 -5.27766,15.51957 -11.38269,19.95376c-6.10503,4.43419 -13.77899,6.65125 -23.02213,6.65125c-6.2762,0 -11.58237,-0.99116 -15.91864,-2.9735c-4.33628,-1.98234 -7.87373,-4.69499 -10.61244,-8.13801c-2.7387,-3.44302 -4.76417,-7.48589 -6.07647,-12.12875c-1.3123,-4.64286 -2.02549,-9.67689 -2.1396,-15.10226l0,0l0,0zm70.17897,-3.13l-70.17897,0c0.34233,-5.63403 1.48344,-10.69415 3.42337,-15.1805c1.93991,-4.48636 4.47888,-8.32057 7.61698,-11.50276c3.1381,-3.18218 6.78965,-5.60791 10.95477,-7.27726c4.16511,-1.66933 8.64397,-2.50399 13.4367,-2.50399c5.70564,0 10.72653,0.96507 15.0628,2.89525c4.33628,1.93017 7.95931,4.56457 10.86918,7.90325c2.90988,3.33869 5.10651,7.22507 6.58998,11.65926c1.48346,4.43419 2.22519,9.10306 2.22519,14.00675l0,0l0,0zm74.45819,-13.9285l3.42337,0c0,-8.97272 -2.85278,-15.49349 -8.55841,-19.56251c-5.70564,-4.06902 -13.46519,-6.1035 -23.27888,-6.1035c-5.47742,0 -10.09891,0.62599 -13.86463,1.878c-3.76572,1.252 -6.84671,2.86916 -9.24308,4.8515c-2.39637,1.98235 -4.10803,4.17333 -5.13504,6.573c-1.02701,2.39968 -1.54051,4.69499 -1.54051,6.88601c0,4.38202 0.85583,7.87716 2.56752,10.4855c1.71169,2.60835 4.3933,4.64283 8.04491,6.10351c2.51048,1.04333 5.36325,1.98233 8.55841,2.817c3.19515,0.83468 6.90376,1.72149 11.12594,2.6605c3.76572,0.83468 7.47433,1.66933 11.12593,2.504c3.65161,0.83468 6.87525,1.95625 9.67101,3.36475c2.79576,1.40851 5.07798,3.20824 6.84672,5.39925c1.76875,2.19101 2.65312,5.06015 2.65312,8.6075c0,3.44302 -0.88437,6.36432 -2.65312,8.76401c-1.76875,2.39968 -4.02244,4.35591 -6.76114,5.86875c-2.7387,1.51285 -5.79118,2.60833 -9.1575,3.2865c-3.36633,0.67818 -6.64702,1.01726 -9.84218,1.01726c-10.38426,0 -18.3435,-2.11273 -23.87797,-6.33826c-5.53447,-4.22552 -8.30166,-10.8767 -8.30166,-19.95375l-3.42337,0c0,10.12038 2.99542,17.52799 8.98633,22.22301c5.99091,4.69503 14.86304,7.0425 26.61666,7.0425c3.76572,0 7.55991,-0.39125 11.38269,-1.17375c3.82278,-0.78251 7.2461,-2.06057 10.27009,-3.83426c3.024,-1.77367 5.47738,-4.06898 7.36024,-6.886c1.88286,-2.81702 2.82427,-6.25999 2.82427,-10.329c0,-3.86036 -0.8273,-6.99033 -2.48194,-9.39001c-1.65463,-2.39968 -3.82274,-4.38199 -6.50439,-5.947c-2.68164,-1.56501 -5.70559,-2.79091 -9.07192,-3.67775c-3.36632,-0.88684 -6.76112,-1.74758 -10.18451,-2.58226c-4.79273,-1.14767 -8.98631,-2.13883 -12.58086,-2.9735c-3.59455,-0.83468 -6.9323,-1.82583 -10.01334,-2.9735c-2.96693,-1.14767 -5.33473,-2.7909 -7.10348,-4.92975c-1.76875,-2.13885 -2.65312,-5.19057 -2.65312,-9.15526c0,-0.73034 0.22822,-2.03449 0.68467,-3.9125c0.45646,-1.87801 1.54051,-3.78208 3.2522,-5.71225c1.71169,-1.93018 4.33624,-3.65167 7.87374,-5.1645c3.53749,-1.51285 8.38721,-2.26925 14.5493,-2.26925c4.22217,0 8.07341,0.41732 11.55386,1.25199c3.48044,0.83468 6.47585,2.16491 8.98633,3.99075c2.51048,1.82584 4.45037,4.14724 5.81972,6.96426c1.36936,2.81701 2.05402,6.25998 2.05402,10.329l0,0l0,0zm79.2509,0l3.42337,0c0,-8.97272 -2.85278,-15.49349 -8.55842,-19.56251c-5.70563,-4.06902 -13.46518,-6.1035 -23.27888,-6.1035c-5.47741,0 -10.0989,0.62599 -13.86462,1.878c-3.76572,1.252 -6.84672,2.86916 -9.24308,4.8515c-2.39637,1.98235 -4.10804,4.17333 -5.13505,6.573c-1.02701,2.39968 -1.54051,4.69499 -1.54051,6.88601c0,4.38202 0.85583,7.87716 2.56753,10.4855c1.71169,2.60835 4.3933,4.64283 8.0449,6.10351c2.51048,1.04333 5.36326,1.98233 8.55841,2.817c3.19516,0.83468 6.90377,1.72149 11.12594,2.6605c3.76572,0.83468 7.47433,1.66933 11.12594,2.504c3.65161,0.83468 6.87524,1.95625 9.671,3.36475c2.79576,1.40851 5.07799,3.20824 6.84673,5.39925c1.76875,2.19101 2.6531,5.06015 2.6531,8.6075c0,3.44302 -0.88436,6.36432 -2.6531,8.76401c-1.76875,2.39968 -4.02244,4.35591 -6.76114,5.86875c-2.7387,1.51285 -5.79118,2.60833 -9.15751,3.2865c-3.36632,0.67818 -6.64702,1.01726 -9.84217,1.01726c-10.38426,0 -18.3435,-2.11273 -23.87798,-6.33826c-5.53447,-4.22552 -8.30166,-10.8767 -8.30166,-19.95375l-3.42337,0c0,10.12038 2.99542,17.52799 8.98633,22.22301c5.99092,4.69503 14.86305,7.0425 26.61667,7.0425c3.76572,0 7.5599,-0.39125 11.38268,-1.17375c3.82278,-0.78251 7.24611,-2.06057 10.2701,-3.83426c3.02399,-1.77367 5.47738,-4.06898 7.36023,-6.886c1.88286,-2.81702 2.82428,-6.25999 2.82428,-10.329c0,-3.86036 -0.82731,-6.99033 -2.48194,-9.39001c-1.65464,-2.39968 -3.82275,-4.38199 -6.50439,-5.947c-2.68165,-1.56501 -5.70559,-2.79091 -9.07192,-3.67775c-3.36633,-0.88684 -6.76113,-1.74758 -10.18451,-2.58226c-4.79273,-1.14767 -8.98632,-2.13883 -12.58086,-2.9735c-3.59455,-0.83468 -6.9323,-1.82583 -10.01334,-2.9735c-2.96694,-1.14767 -5.33474,-2.7909 -7.10349,-4.92975c-1.76875,-2.13885 -2.6531,-5.19057 -2.6531,-9.15526c0,-0.73034 0.22822,-2.03449 0.68467,-3.9125c0.45645,-1.87801 1.5405,-3.78208 3.2522,-5.71225c1.71169,-1.93018 4.33624,-3.65167 7.87374,-5.1645c3.53749,-1.51285 8.38721,-2.26925 14.54929,-2.26925c4.22218,0 8.07342,0.41732 11.55386,1.25199c3.48045,0.83468 6.47585,2.16491 8.98634,3.99075c2.51048,1.82584 4.45036,4.14724 5.81972,6.96426c1.36935,2.81701 2.05402,6.25998 2.05402,10.329l0,0l0,0z"/>
  </g>
 </g>
</svg>