<svg width="460" height="460.24014" xmlns="http://www.w3.org/2000/svg" xmlns:xlink="http://sodipodi.sourceforge.net/DTD/sodipodi-0.dtd" xmlns:undefined="http://www.inkscape.org/namespaces/inkscape" version="1.0">

 <metadata id="metadata1973">image/svg+xml</metadata>
 <g>
  <title>Layer 1</title>
  <g stroke="null" id="layer1"  >
   <g stroke="null" id="Ebene_x0020_1">
    <metadata fill="#444444" stroke="null" id="CorelCorpID_0Corel-Layer"/>
    <g stroke="null" id="_198302696">
     <path stroke="null" fill="#444444" id="_227268128" d="m171.47785,344.57356c0,0 -16.24533,9.88836 11.30081,12.71356c33.19618,4.23767 50.8543,3.53201 87.58213,-3.53144c0,0 9.88836,6.35664 23.30809,11.3011c-82.63796,35.31544 -187.17148,-2.11954 -122.19111,-20.48318l0.00007,-0.00004zm-10.59486,-45.90972c0,0 -17.65745,13.41951 9.88836,16.24465c36.02204,3.53201 64.27431,4.23767 113.00935,-5.65041c0,0 6.35692,7.06316 16.95125,10.59486c-99.58921,29.66507 -211.18617,2.8252 -139.84828,-21.18924l-0.00068,0.00014zm194.94098,80.51896c0,0 12.00733,9.88864 -13.41979,17.65745c-47.32279,14.12634 -198.47331,18.36391 -240.85179,0c-14.83226,-6.35635 13.42008,-15.53873 22.60163,-16.95125c9.18212,-2.11869 14.12607,-2.11869 14.12607,-2.11869c-16.24438,-11.3011 -108.06477,23.30782 -46.61632,33.19618c168.8077,27.54608 307.95115,-12.00705 264.15893,-31.78379l0.00128,0.00011zm-176.5772,-128.54808c0,0 -76.98731,18.36391 -27.54553,24.72062c21.18924,2.82491 62.86124,2.11926 101.70847,-0.70624c31.78352,-2.8252 63.56785,-8.47561 63.56785,-8.47561c0,0 -11.3011,4.94389 -19.07079,9.88864c-78.3997,20.48236 -228.84376,11.30053 -185.75909,-9.88864c36.72797,-17.65799 67.09868,-15.53873 67.09868,-15.53873l0.00041,-0.00004zm137.73106,76.98731c79.1063,-40.96595 42.37861,-80.51896 16.95125,-75.57451c-6.35692,1.41246 -9.18212,2.8252 -9.18212,2.8252c0,0 2.11898,-4.23794 7.06287,-5.65041c50.14825,-17.65799 89.7014,52.97262 -16.24438,80.51869c0,0 0.70566,-0.70624 1.41246,-2.11898l-0.00008,0.00001zm-129.96115,111.59683c76.28166,4.94446 192.8224,-2.8252 195.64717,-38.84668c0,0 -5.65013,14.12634 -62.86097,24.72035c-64.98051,12.00762 -145.4992,10.59486 -192.8224,2.8252c0,0 9.88807,8.4759 60.03606,11.3011l0.00014,0.00004z"/>
     <path stroke="null" fill="#444444" id="_230367536" d="m268.94875,17.55297c0,0 43.79114,44.49733 -41.67242,111.59683c-68.51202,54.38541 -15.53873,85.46287 0,120.77817c-40.25962,-36.02109 -69.21822,-67.80542 -49.44178,-97.47049c28.95915,-43.79114 108.77164,-64.97996 91.1142,-134.90438l0,-0.00014zm-22.60163,202.71048c20.48236,23.30836 -5.65069,44.49787 -5.65069,44.49787c0,0 52.26669,-26.83988 28.25227,-60.0366c-21.89598,-31.78352 -38.84723,-47.32224 52.97289,-100.29568c0,0 -144.79301,36.02204 -75.57451,115.83454l0.00004,-0.00014zm-52.26697,379.28768l0,-69.21822c0,-17.65826 -9.88836,-29.66507 -34.60952,-29.66507c-14.12607,0 -26.13341,3.53144 -36.72824,7.76909l3.53201,12.71356c7.76909,-2.8252 17.65745,-5.65069 28.25227,-5.65069c13.41979,0 19.77644,5.65069 19.77644,16.9518l0,9.18212l-7.06287,0c-33.90305,0 -49.44178,12.71356 -49.44178,33.19618c0,16.95153 10.59459,26.83988 29.66507,26.83988c12.00705,0 21.18951,-5.65069 29.66507,-12.71356l1.41274,10.59486l15.53873,0l0.00008,0.00004zm-19.77698,-22.60217c-7.06287,6.35664 -14.83253,9.88864 -21.8957,9.88864c-9.18156,0 -14.83199,-5.65041 -14.83199,-15.53873c0,-9.88864 5.65041,-16.95153 28.25227,-16.95153l8.47533,0l0,22.60163l0.0001,-0.00001zm86.17002,22.60217l-24.72143,0l-29.6648,-96.76457l21.18951,0l18.36391,59.32986l4.23767,17.65772c9.18212,-25.42681 16.2456,-51.56077 19.07079,-76.98758l21.18924,0c-5.65041,31.78406 -15.53846,66.39276 -29.6648,96.76457l-0.0001,0zm114.42174,0l0,-69.21822c0,-17.65826 -9.88836,-29.66507 -34.60925,-29.66507c-14.12634,0 -26.13341,3.53144 -36.72824,7.76909l2.82549,12.71356c8.47561,-2.8252 18.36391,-5.65069 28.95887,-5.65069c13.41979,0 19.77644,5.65069 19.77644,16.9518l0,9.18212l-7.06287,0c-33.90305,0 -49.44178,12.71356 -49.44178,33.19618c0,16.95153 9.88836,26.83988 28.9586,26.83988c12.71356,0 21.8957,-5.65069 30.37153,-12.71356l1.41274,10.59486l15.53846,0l0,0.00004zm-19.77671,-22.60217c-7.06287,6.35664 -14.83253,9.88864 -21.89598,9.88864c-9.18156,0 -14.83199,-5.65041 -14.83199,-15.53873c0,-9.88864 5.65041,-16.95153 28.25227,-16.95153l8.47561,0l0,22.60163l0.00008,-0.00001zm-259.21557,38.84696c-5.65041,8.47561 -14.12634,14.83281 -24.72035,18.36391l-9.18241,-11.3011c7.06287,-4.23767 14.12634,-10.59402 16.95125,-16.24465c2.8252,-4.94418 3.53201,-12.00762 3.53201,-28.25227l0,-110.18403l21.18924,0l0,108.77137c0,21.89543 -2.11898,30.37099 -7.76966,38.84696l-0.00008,-0.00019z"/>
    </g>
   </g>
  </g>
 </g>
</svg>